<svg width="39" height="39" viewBox="0 0 39 39" fill="none" xmlns="http://www.w3.org/2000/svg">
<path d="M4.94864 0.769999C5.91822 0.714273 6.9067 1.0944 7.7215 1.88397L9.90807 4.00173L19.8814 13.6745L29.7614 4.09354C29.8991 3.91704 30.0808 3.81195 30.273 3.79771H30.074L32.0366 1.89213C32.8519 1.10061 33.8418 0.718339 34.8126 0.774079C35.7833 0.82982 36.734 1.32272 37.4719 2.27773C38.4093 3.49018 38.9913 5.18604 38.9913 7.04576V10.6325C39.0029 10.7346 39.0029 10.8384 38.9913 10.9406V35.3438C38.9913 37.3507 37.7342 38.9999 36.2044 38.9999H30.2326C30.0214 38.9999 29.8189 38.8899 29.6696 38.694C29.5203 38.4981 29.4364 38.2324 29.4363 37.9553V20.5868L20.3541 29.3945C20.2172 29.527 20.0515 29.5985 19.8814 29.5985C19.7112 29.5985 19.5455 29.527 19.4086 29.3945L10.3264 20.5868V37.9553C10.3264 38.2324 10.2425 38.4981 10.0932 38.694C9.94385 38.8899 9.74133 38.9999 9.53016 38.9999H3.55832C2.02857 38.9999 0.77145 37.3507 0.77145 35.3438V10.9202C0.762459 10.8301 0.762459 10.7389 0.77145 10.6488V7.04576C0.77145 5.20888 1.33642 3.52089 2.2613 2.3063C2.28803 2.27123 2.29699 2.26152 2.28619 2.27569C2.28773 2.27364 2.28929 2.2716 2.29085 2.26957C3.02862 1.31667 3.97905 0.825725 4.94864 0.769999ZM5.03572 2.85716C4.43352 2.88814 3.8497 3.18777 3.40746 3.75894C3.39241 3.77845 3.38141 3.79318 3.3888 3.78343C2.75463 4.61625 2.36395 5.76974 2.36395 7.04576V10.2693L8.73392 16.4451V5.57271C8.73358 5.5373 8.73462 5.5019 8.73703 5.46662L6.77596 3.56512H6.7744C6.25793 3.0646 5.63793 2.82618 5.03572 2.85716ZM34.7255 2.86328C34.1226 2.83232 33.5005 3.06955 32.9837 3.57124L31.0257 5.4707C31.028 5.50462 31.0291 5.53866 31.0288 5.57271V16.4451L37.3988 10.2693V7.04576C37.3988 5.75498 36.9993 4.60004 36.3537 3.76507C35.9116 3.19287 35.3283 2.89424 34.7255 2.86328ZM10.3264 7.00496V17.9896L19.8814 27.2543L29.4363 17.9896V7.007L20.3541 15.8147C20.2172 15.9472 20.0515 16.0187 19.8814 16.0187C19.7112 16.0187 19.5455 15.9472 19.4086 15.8147L10.3264 7.00496ZM37.3988 12.8666L31.0288 19.0444V36.9107H36.2044C36.8739 36.9107 37.3988 36.2222 37.3988 35.3438V12.8666ZM2.36395 12.8666V35.3438C2.36395 36.2222 2.88882 36.9107 3.55832 36.9107H8.73392V19.0444L2.36395 12.8666Z" fill="white"/>
</svg>
