<svg width="39" height="39" viewBox="0 0 39 39" fill="none" xmlns="http://www.w3.org/2000/svg">
<path d="M19.1176 0C29.6645 0 38.2353 8.5708 38.2353 19.1176C38.2353 29.6645 29.6645 38.2353 19.1176 38.2353C8.5708 38.2353 -3.8147e-06 29.6645 -3.8147e-06 19.1176C-3.8147e-06 8.5708 8.5708 0 19.1176 0ZM19.1176 1.6624C9.4696 1.6624 1.6624 9.46961 1.6624 19.1176C1.6624 19.177 1.66668 19.2354 1.66727 19.2946C2.19892 19.2455 2.81319 19.1989 3.5943 19.1712C4.69873 19.1321 6.09083 19.1434 7.66913 19.2215C7.61061 18.814 7.56958 18.4006 7.56848 17.9764C7.488 16.4198 8.01069 14.9637 8.86074 13.6775C8.65538 12.9679 8.41446 12.0651 8.35423 11.041C8.28557 9.87379 8.38633 8.57947 9.32342 7.70485L9.56369 7.48082H9.89163C12.1218 7.48082 13.6483 8.41443 14.5817 9.15459C15.9295 8.63288 17.4451 8.31202 19.1176 8.31202C20.7997 8.31202 22.3298 8.63737 23.7331 9.15783C24.666 8.41733 26.1938 7.48082 28.4265 7.48082H28.7528L28.993 7.70323C29.9059 8.55084 29.99 9.80965 29.933 10.9712C29.8828 11.9955 29.6558 12.927 29.4541 13.671C30.3185 14.9823 30.8373 16.4761 30.8373 17.9536C30.8373 18.3789 30.7977 18.7935 30.7399 19.2021C32.2408 19.1325 33.5788 19.119 34.641 19.1566C35.4221 19.1842 36.0364 19.2305 36.568 19.28C36.5685 19.2257 36.5729 19.1721 36.5729 19.1176C36.5729 9.46961 28.7657 1.6624 19.1176 1.6624ZM27.9313 9.25199C26.2543 9.41091 24.9926 10.1598 24.4084 10.679L24.0188 11.0232L23.5383 10.8267C22.2238 10.2855 20.7576 9.97442 19.1176 9.97442C17.4777 9.97442 16.0111 10.287 14.796 10.8186L14.309 11.0329L13.9113 10.679C13.3269 10.1596 12.0631 9.4105 10.3852 9.25199C10.1621 9.62186 9.9682 10.1479 10.015 10.9436C10.071 11.8959 10.3258 12.9332 10.5183 13.5492L10.6433 13.9502L10.3949 14.2895C9.57244 15.4111 9.15309 16.6248 9.22439 17.9082L9.22602 17.9309V17.9536C9.22602 20.0279 9.97294 21.688 11.5638 22.9181C13.1546 24.1482 15.6659 24.9361 19.2004 24.9361C22.7349 24.9361 25.2479 24.1482 26.8387 22.9181C28.4296 21.688 29.1749 20.0279 29.1749 17.9536C29.1749 16.7362 28.7352 15.3969 27.9232 14.2895L27.6797 13.9584L27.7966 13.5639C27.9892 12.909 28.2253 11.848 28.2722 10.89C28.3113 10.0932 28.1227 9.5896 27.9313 9.25199ZM32.5127 19.9667C31.9253 19.9742 31.252 20.0059 30.5775 20.0398C30.5131 20.2989 30.4396 20.5539 30.3502 20.8028C33.0993 20.8608 35.1559 21.1372 36.4235 21.3742C36.4771 20.9583 36.5198 20.539 36.5437 20.1144C35.6069 20.0255 34.2863 19.9441 32.5127 19.9667ZM5.72263 19.9797C3.95026 19.9572 2.63015 20.0387 1.69324 20.1274C1.71707 20.5459 1.75903 20.9593 1.81176 21.3694C3.12468 21.1285 5.23684 20.8521 8.05714 20.8076C7.96961 20.5637 7.89673 20.3131 7.8331 20.0592C7.08908 20.0194 6.36321 19.9878 5.72263 19.9797ZM29.9963 21.6275C29.5003 22.6214 28.7916 23.5089 27.855 24.2331C26.5745 25.2233 24.9098 25.9151 22.8775 26.2851C23.1434 26.5583 23.3852 26.8583 23.6 27.1748L23.6503 27.131C23.6457 27.1257 24.0635 27.3348 24.6877 27.3907C25.3118 27.4466 26.0818 27.4297 26.7641 27.4297C27.7823 27.4297 28.2308 26.9486 28.9476 26.0725C29.3445 25.5375 29.8284 25.1042 30.2983 24.7753C30.7794 24.4386 31.1898 24.2009 31.6977 24.1162L31.7659 24.1049H31.8357C32.2236 24.1049 32.5989 24.1329 32.9494 24.5334C33.1246 24.7337 33.2454 25.1044 33.1669 25.4182C33.0885 25.732 32.8899 25.9248 32.7123 26.0432C31.5763 26.8006 31.3756 28.2995 30.6636 29.6327C29.9987 30.9576 28.5637 31.5857 27.0969 31.5857H24.9361V35.5777C30.7812 33.5145 35.1892 28.4309 36.2969 22.1957C35.0244 21.956 32.8935 21.6679 29.9963 21.6275ZM8.40942 21.634C5.44808 21.6593 3.25743 21.9471 1.93676 22.1908C3.04299 28.4284 7.4525 33.514 13.2992 35.5777V31.2529C13.2992 29.9358 13.7318 28.4834 14.4843 27.2722C14.7128 26.9045 14.9816 26.5567 15.2815 26.2446C13.357 25.8644 11.7762 25.1844 10.5459 24.2331C9.61133 23.5105 8.90417 22.6257 8.40942 21.634ZM20.1989 26.6813H17.8708C17.1952 26.6813 16.4741 27.2197 15.8967 28.1489C15.3194 29.078 14.9616 30.3257 14.9616 31.2529V36.0729C16.2937 36.3977 17.6848 36.5729 19.1176 36.5729C20.5505 36.5729 21.9416 36.3977 23.2737 36.0729V31.2529C23.2737 30.3462 22.8848 29.1015 22.2687 28.1683C21.6527 27.2352 20.8745 26.6813 20.1989 26.6813ZM29.6668 27.6634C28.9471 28.4099 28.0759 29.0921 26.7641 29.0921C26.1164 29.0921 25.308 29.1154 24.5399 29.0466C24.5372 29.0464 24.5346 29.0452 24.5318 29.045C24.633 29.3359 24.7085 29.6286 24.7721 29.9233H27.0969C28.122 29.9233 28.8462 29.5529 29.1797 28.8859L29.1862 28.8745L29.1911 28.8648C29.3277 28.611 29.5071 28.1034 29.6668 27.6634Z" fill="white"/>
</svg>
