<svg width="39" height="39" viewBox="0 0 39 39" fill="none" xmlns="http://www.w3.org/2000/svg">
<path d="M33.6835 0.646973C36.1865 0.646973 38.2353 2.69573 38.2353 5.19879V34.3304C38.2353 36.8335 36.1865 38.8823 33.6835 38.8823H4.55182C2.04876 38.8823 -3.8147e-06 36.8335 -3.8147e-06 34.3304V5.19879C-3.8147e-06 2.69573 2.04876 0.646973 4.55182 0.646973H33.6835ZM33.6835 2.4677H4.55182C3.03289 2.4677 1.82072 3.67987 1.82072 5.19879V34.3304C1.82072 35.8494 3.03289 37.0615 4.55182 37.0615H33.6835C35.2024 37.0615 36.4146 35.8494 36.4146 34.3304V5.19879C36.4146 3.67987 35.2024 2.4677 33.6835 2.4677ZM29.1316 7.03019C30.1287 7.03019 31.0259 7.32821 31.6903 7.88721C32.3546 8.44622 32.7624 9.28133 32.7624 10.1756C32.7624 11.8754 31.288 13.2005 29.4126 13.3316L29.409 13.3334C29.3197 13.3639 29.2261 13.3801 29.1316 13.3814C27.0624 13.3814 25.5009 11.9319 25.5009 10.1756C25.501 10.1596 25.5016 10.1435 25.5026 10.1276C25.5953 8.39766 27.1375 7.03019 29.1316 7.03019ZM29.1316 8.82958C27.8642 8.82958 27.3637 9.39561 27.3091 10.1987C27.3202 10.9782 27.8024 11.582 29.1316 11.582C30.3929 11.582 30.963 10.9361 30.963 10.1756C30.963 9.7953 30.8243 9.50873 30.5328 9.26343C30.2412 9.01813 29.7733 8.82958 29.1316 8.82958ZM31.8627 14.3024C32.1042 14.3025 32.3357 14.3984 32.5064 14.5691C32.6772 14.7398 32.7731 14.9714 32.7731 15.2128V32.5097C32.7731 32.7512 32.6772 32.9827 32.5064 33.1534C32.3357 33.3241 32.1042 33.4201 31.8627 33.4201H26.4006C26.1591 33.4201 25.9276 33.3241 25.7569 33.1534C25.5861 32.9827 25.4902 32.7512 25.4902 32.5097V27.1702V15.2128C25.4902 14.9714 25.5861 14.7398 25.7569 14.5691C25.9276 14.3984 26.1591 14.3025 26.4006 14.3024H31.8627ZM23.6695 14.3024C23.9109 14.3025 24.1424 14.3984 24.3132 14.5691C24.4839 14.7398 24.5798 14.9714 24.5798 15.2128V32.5097C24.5798 32.7512 24.4839 32.9827 24.3132 33.1534C24.1424 33.3241 23.9109 33.4201 23.6695 33.4201H18.2073C17.9658 33.4201 17.7343 33.3241 17.5636 33.1534C17.3929 32.9827 17.2969 32.7512 17.2969 32.5097V23.4061C17.2969 22.6508 17.0908 21.8995 16.7279 21.4075C16.3651 20.9156 15.9073 20.6204 15.037 20.6359C14.1396 20.6513 13.6646 20.9587 13.3052 21.4413C12.9458 21.9239 12.7451 22.6474 12.7451 23.4061V32.5097C12.7451 32.7512 12.6491 32.9827 12.4784 33.1534C12.3077 33.3241 12.0762 33.4201 11.8347 33.4201H6.37255C6.13111 33.4201 5.89957 33.3241 5.72885 33.1534C5.55813 32.9827 5.4622 32.7512 5.46218 32.5097V22.734C5.46218 20.0379 6.26076 17.9023 7.62963 16.4574C8.9985 15.0126 10.9024 14.3024 12.9158 14.3024C14.8294 14.3024 16.2856 14.9441 17.2969 15.5986V15.2128C17.2969 14.9714 17.3929 14.7398 17.5636 14.5691C17.7343 14.3984 17.9658 14.3025 18.2073 14.3024H23.6695ZM30.9524 16.1232H27.3109V27.1702V31.5994H30.9524V16.1232ZM22.7591 16.1232H19.1176V17.5438C19.1176 17.7347 19.0575 17.9208 18.946 18.0757C18.8344 18.2306 18.677 18.3465 18.4959 18.407C18.3149 18.4676 18.1194 18.4697 17.9371 18.413C17.7548 18.3564 17.5949 18.2439 17.4801 18.0915C17.4801 18.0915 16.0504 16.1232 12.9158 16.1232C11.3196 16.1232 9.95085 16.6535 8.95073 17.7092C7.9506 18.7649 7.28291 20.3912 7.28291 22.734V31.5994H10.9244V23.4061C10.9244 22.344 11.1788 21.2459 11.8436 20.3532C12.5084 19.4604 13.6265 18.8388 15.005 18.8151C16.3906 18.7905 17.5268 19.425 18.1931 20.3283C18.8593 21.2315 19.1176 22.3406 19.1176 23.4061V31.5994H22.7591V16.1232Z" fill="white"/>
</svg>
