<svg width="40" height="40" viewBox="0 0 40 40" fill="none" xmlns="http://www.w3.org/2000/svg">
<path d="M0.999999 6.27778C0.999999 24.3497 15.6503 39 33.7222 39C34.5376 39 35.346 38.9702 36.1464 38.9115C37.0649 38.8442 37.5242 38.8106 37.9423 38.57C38.2885 38.3707 38.6169 38.0173 38.7905 37.6573C39 37.2229 39 36.716 39 35.7024V29.7548C39 28.9023 39 28.4761 38.8597 28.1109C38.7358 27.7881 38.5345 27.5008 38.2736 27.274C37.9782 27.0173 37.5776 26.8717 36.7766 26.5803L30.0066 24.1186C29.0745 23.7797 28.6085 23.6102 28.1664 23.6389C27.7766 23.6643 27.4014 23.7975 27.0827 24.0234C26.7212 24.2794 26.4661 24.7046 25.9558 25.5552L24.2222 28.4444C18.628 25.9109 14.0929 21.3699 11.5556 15.7778L14.4448 14.0442C15.2954 13.5339 15.7206 13.2788 15.9766 12.9173C16.2025 12.5986 16.3357 12.2234 16.3611 11.8336C16.3898 11.3915 16.2203 10.9255 15.8814 9.99344L13.4197 3.22344C13.1283 2.42238 12.9827 2.02184 12.726 1.72643C12.4992 1.46548 12.2119 1.26421 11.8891 1.14028C11.5239 1 11.0977 1 10.2452 1H4.29756C3.28401 1 2.77713 1 2.34267 1.20953C1.98272 1.38308 1.62932 1.71147 1.43003 2.05773C1.18936 2.47581 1.1558 2.93509 1.08846 3.85365C1.02977 4.65404 0.999999 5.46242 0.999999 6.27778Z" stroke="white" stroke-width="2" stroke-linecap="round" stroke-linejoin="round"/>
</svg>
